<?xml version="1.0" encoding="UTF-8" standalone="no"?>
<!-- Created with Inkscape (http://www.inkscape.org/) -->

<svg
   width="92.422997mm"
   height="62.279999mm"
   viewBox="0 0 92.422997 62.279999"
   version="1.1"
   id="svg1"
   xml:space="preserve"
   inkscape:version="1.4.2 (1:1.4.2+202505120737+ebf0e940d0)"
   sodipodi:docname="garage-logo.svg"
   xmlns:inkscape="http://www.inkscape.org/namespaces/inkscape"
   xmlns:sodipodi="http://sodipodi.sourceforge.net/DTD/sodipodi-0.dtd"
   xmlns="http://www.w3.org/2000/svg"
   xmlns:svg="http://www.w3.org/2000/svg"><sodipodi:namedview
     id="namedview1"
     pagecolor="#ffffff"
     bordercolor="#111111"
     borderopacity="1"
     inkscape:showpageshadow="0"
     inkscape:pageopacity="0"
     inkscape:pagecheckerboard="1"
     inkscape:deskcolor="#d1d1d1"
     inkscape:document-units="mm"
     inkscape:zoom="1.3517351"
     inkscape:cx="371.74443"
     inkscape:cy="402.44571"
     inkscape:window-width="2560"
     inkscape:window-height="1368"
     inkscape:window-x="0"
     inkscape:window-y="0"
     inkscape:window-maximized="1"
     inkscape:current-layer="layer1" /><defs
     id="defs1" /><g
     inkscape:label="Calque 1"
     inkscape:groupmode="layer"
     id="layer1"><path
       style="fill:#ff9329;fill-opacity:1;stroke-width:0.264583"
       d="m 4.508543,2.031246 7.575261,2.419361 c 0,0 1.470613,3.769655 -1.711632,7.975913 -3.182243,4.206256 0,0 0,0 v 0 0 l -8.279225,-1.88334 0.654254,1.438426 2.979643,2.754855 4.1757575,2.764461 4.9829035,-0.78378 3.618844,0.446597 2.581068,0.393127 50.653025,28.675242 2.588594,2.266468 2.41689,2.569779 1.77015,3.00469 1.26089,1.781849 2.12317,1.201954 3.54448,-0.129524 5.47129,-1.174829 -6.43638,-2.308652 -1.05867,-1.66737 -0.0514,-2.031685 0.94251,-2.136549 1.63688,-1.476448 6.47648,1.530316 -1.20364,-1.882947 -1.67866,-1.751341 -4.80911,-2.588988 -1.81611,-0.09358 -2.79288,0.688519 -2.13278,-0.0058 -2.06218,-0.366388 L 24.466106,12.528451 22.136954,10.27535 19.382492,6.17941 17.797408,2.611961 16.668134,1.305138 14.430481,0.30539 11.532732,0 5.801998,1.161457 Z"
       id="path1"
       inkscape:label="6" /><path
       style="fill:#4e4e4e;fill-opacity:1;stroke-width:0.264583"
       d="m 3.390424,4.49882 7.575261,2.419361 c 0,0 1.470613,3.769655 -1.711632,7.975913 -3.182243,4.206256 0,0 0,0 v 0 0 l -8.27922505,-1.88334 0.65425405,1.438426 2.979643,2.754855 4.175757,2.764461 4.982904,-0.78378 3.618844,0.446597 2.581068,0.393127 50.653025,28.675242 2.588594,2.266468 2.416889,2.569779 1.77015,3.00469 1.26089,1.781849 2.12317,1.201954 3.54448,-0.129524 5.47129,-1.174829 -6.43638,-2.308652 -1.05867,-1.66737 -0.0514,-2.031685 0.94251,-2.136549 1.63688,-1.476448 6.47648,1.530316 -1.20364,-1.882947 -1.67866,-1.751341 -4.80911,-2.588988 -1.81611,-0.09358 -2.79288,0.688519 -2.13278,-0.0058 -2.06218,-0.366388 L 23.347987,14.996025 21.018835,12.742924 18.264373,8.646984 16.679289,5.079535 15.550015,3.772712 13.312362,2.772964 10.414613,2.467574 4.683879,3.629031 Z"
       id="path1-6"
       inkscape:label="5" /><path
       style="fill:#ff9329;fill-opacity:1;stroke-width:0.264583"
       d="m 2.534044,6.845579 7.575261,2.419361 c 0,0 1.470613,3.769655 -1.711632,7.975913 -3.182243,4.206256 0,0 0,0 v 0 0 l -8.279225,-1.88334 0.65425395,1.438426 2.97964305,2.754855 4.175757,2.764461 4.982904,-0.78378 3.618844,0.446597 2.581068,0.393127 50.653028,28.675242 2.58859,2.266468 2.41689,2.569779 1.77015,3.00469 1.26089,1.781849 2.12317,1.201954 3.54448,-0.129524 5.47129,-1.174829 -6.43638,-2.308652 -1.05867,-1.66737 -0.0514,-2.031685 0.94251,-2.136549 1.63688,-1.476448 6.47648,1.530316 -1.20364,-1.882947 -1.67866,-1.751341 -4.80911,-2.588988 -1.81611,-0.09358 -2.79288,0.688519 -2.13278,-0.0058 -2.06218,-0.366388 L 22.491607,17.342784 20.162455,15.089683 17.407993,10.993743 15.822909,7.426294 14.693635,6.119471 12.455982,5.119723 9.5582335,4.814333 3.827499,5.97579 Z"
       id="path1-0"
       inkscape:label="4" /><path
       style="fill:#ff9329;fill-opacity:1;stroke-width:0.264583"
       d="m 87.914796,2.440244 -7.57526,2.419361 c 0,0 -1.47062,3.769655 1.71163,7.975913 3.18224,4.206256 0,0 0,0 v 0 0 l 8.27922,-1.88334 -0.65425,1.438426 -2.97964,2.754855 -4.17576,2.764461 -4.98291,-0.78378 -3.61884,0.446597 -2.581071,0.393127 -50.65302,28.675241 -2.5886,2.26647 -2.41689,2.56978 -1.77015,3.00469 -1.26089,1.78185 -2.12317,1.20195 -3.54448,-0.12952 -5.471295,-1.17483 6.436385,-2.30865 1.05867,-1.66737 0.0514,-2.03169 -0.9425101,-2.13655 -1.63688,-1.47645 L 0,48.071105 l 1.2036399,-1.88295 1.6786651,-1.75134 4.80911,-2.58899 1.8161105,-0.0936 2.7928795,0.68852 2.13278,-0.006 2.06218,-0.36639 51.46186,-29.133126 2.32916,-2.253101 2.75446,-4.09594 1.585081,-3.567449 1.12928,-1.306823 2.23765,-0.99974799 2.89775,-0.30539 5.73073,1.16145699 z"
       id="path1-7"
       inkscape:label="3" /><path
       style="fill:#4e4e4e;fill-opacity:1;stroke-width:0.264583"
       d="m 89.032916,4.907818 -7.57527,2.419361 c 0,0 -1.47061,3.769655 1.71164,7.975913 3.18224,4.206256 0,0 0,0 v 0 0 l 8.27922,-1.88334 -0.65425,1.438426 -2.97965,2.754855 -4.17575,2.764461 -4.98291,-0.78378 -3.61884,0.446597 -2.581071,0.393127 -50.65302,28.675247 -2.5886,2.26646 -2.41689,2.56978 -1.77015,3.00469 -1.26089,1.78185 -2.12317,1.20196 -3.54448,-0.12953 -5.47129,-1.17483 6.43638,-2.30865 1.05867,-1.66737 0.0514,-2.03168 -0.94251,-2.13655 -1.63688,-1.47645 -6.476485,1.53031 1.203645,-1.88294 1.67866,-1.75134 4.80911,-2.58899 1.81611,-0.0936 2.79288,0.68852 2.13278,-0.006 2.06218,-0.36639 51.46186,-29.133132 2.32915,-2.253101 2.754471,-4.09594 1.58508,-3.567449 1.12928,-1.306823 2.23765,-0.999748 2.89775,-0.30539 5.73073,1.161457 z"
       id="path1-6-9"
       inkscape:label="2" /><path
       style="fill:#ff9329;fill-opacity:1;stroke-width:0.264583"
       d="m 89.889296,7.254577 -7.57527,2.419361 c 0,0 -1.47061,3.769655 1.71164,7.975913 3.18224,4.206256 0,0 0,0 v 0 0 l 8.27922,-1.88334 -0.65425,1.438426 -2.97965,2.754855 -4.17575,2.764461 -4.98291,-0.78378 -3.61884,0.446597 -2.581071,0.393127 -50.65303,28.675238 -2.58859,2.26647 -2.41689,2.56978 -1.77015,3.00469 -1.26089,1.78185 -2.12317,1.20195 -3.54448,-0.12952 -5.47129,-1.17483 6.4363805,-2.30865 1.0586695,-1.66737 0.0514,-2.03169 -0.94251,-2.13655 -1.63688,-1.47644 -6.47648,1.53031 1.20364,-1.88294 1.67866,-1.75135 4.8091105,-2.58898 1.8161095,-0.0936 2.79288,0.68852 2.13278,-0.006 2.06218,-0.36639 51.46186,-29.133133 2.32915,-2.253101 2.754471,-4.09594 1.58508,-3.567449 1.12927,-1.306823 2.23766,-0.999748 2.89775,-0.30539 5.73073,1.161457 z"
       id="path1-0-2"
       inkscape:label="1" /></g></svg>
